<?xml version="1.0" standalone="no"?>
<!DOCTYPE svg PUBLIC "-//W3C//DTD SVG 20010904//EN"
 "http://www.w3.org/TR/2001/REC-SVG-20010904/DTD/svg10.dtd">
<svg version="1.0" xmlns="http://www.w3.org/2000/svg"
 width="1200.000000pt" height="1200.000000pt" viewBox="0 0 1200.000000 1200.000000"
 preserveAspectRatio="xMidYMid meet">
<metadata>
Created by potrace 1.14, written by Peter Selinger 2001-2017
</metadata>
<g transform="translate(0.000000,1200.000000) scale(0.100000,-0.100000)"
fill="#000000" stroke="none">
<path d="M5797 10254 c-1 -1 -47 -5 -102 -9 -55 -3 -111 -8 -125 -10 -14 -2
-50 -7 -80 -10 -62 -7 -163 -22 -200 -29 -14 -3 -42 -7 -64 -10 -214 -32 -659
-167 -906 -274 -90 -39 -360 -174 -365 -182 -4 -6 -11 -8 -16 -5 -5 4 -9 2 -9
-2 0 -5 -24 -21 -52 -36 -29 -15 -95 -54 -147 -87 -51 -33 -97 -60 -101 -60
-5 0 -10 -4 -12 -8 -1 -4 -34 -30 -73 -57 -95 -67 -290 -219 -344 -269 -101
-93 -186 -173 -215 -202 -71 -70 -273 -295 -295 -328 -8 -12 -18 -23 -21 -26
-3 -3 -17 -21 -30 -40 -13 -19 -29 -40 -35 -46 -11 -12 -22 -26 -98 -134 -184
-261 -355 -583 -472 -885 -66 -172 -144 -412 -159 -491 -2 -10 -9 -37 -14 -59
-6 -22 -13 -51 -16 -65 -38 -195 -48 -251 -61 -346 -52 -371 -53 -780 -5
-1134 96 -713 350 -1353 767 -1935 190 -265 423 -520 668 -729 50 -42 99 -85
110 -95 38 -34 252 -190 341 -249 219 -144 528 -307 729 -384 231 -89 462
-165 553 -183 9 -1 35 -8 57 -13 22 -6 51 -13 65 -16 14 -2 46 -9 73 -15 26
-6 64 -14 85 -16 20 -3 48 -8 62 -11 14 -2 34 -6 45 -8 11 -2 63 -9 115 -15
52 -7 109 -14 125 -16 220 -30 708 -24 945 11 19 2 53 7 75 10 308 41 650 131
980 261 148 58 438 195 468 221 9 8 17 11 17 6 0 -5 4 -4 8 2 4 5 39 28 77 51
308 178 600 404 874 674 35 34 149 158 201 218 30 35 61 70 68 77 6 7 12 15
12 18 0 3 10 16 23 29 33 36 216 292 267 372 116 185 243 424 323 605 57 131
190 522 211 625 3 11 16 70 30 130 14 61 27 124 30 140 15 87 36 227 42 280 3
33 8 68 10 78 10 54 18 248 18 432 -1 185 -3 247 -19 420 -4 49 -32 259 -40
300 -63 331 -138 593 -247 865 -50 125 -200 443 -222 469 -6 7 -24 38 -41 67
-75 132 -269 425 -294 444 -4 3 -20 23 -36 45 -59 81 -246 293 -361 409 -11
12 -65 62 -119 111 -54 50 -106 97 -114 105 -9 8 -37 31 -61 50 -25 19 -47 37
-50 40 -3 3 -23 18 -45 35 -22 16 -44 33 -50 38 -5 4 -37 27 -70 51 -409 292
-857 509 -1326 641 -52 15 -101 28 -109 30 -8 2 -33 8 -55 13 -22 6 -51 13
-65 16 -14 3 -61 12 -104 21 -121 24 -158 30 -276 45 -232 30 -277 33 -523 34
-125 1 -229 1 -230 0z m513 -348 c68 -7 151 -16 185 -20 28 -4 129 -20 135
-21 3 -1 30 -5 60 -10 30 -5 57 -9 60 -10 3 -1 23 -5 45 -10 22 -5 42 -10 45
-10 26 -7 66 -17 125 -30 207 -49 505 -157 715 -258 217 -105 492 -270 639
-384 9 -7 50 -38 92 -70 125 -95 196 -159 369 -333 266 -266 477 -546 645
-855 81 -149 106 -199 130 -255 14 -33 36 -84 49 -112 41 -90 93 -228 124
-333 50 -166 71 -239 76 -265 3 -14 14 -63 25 -110 19 -85 46 -235 56 -320 3
-25 7 -58 10 -75 19 -159 25 -516 11 -724 -4 -63 -9 -117 -10 -120 -2 -3 -7
-37 -11 -74 -3 -37 -8 -78 -11 -90 -2 -12 -13 -71 -24 -132 -34 -189 -137
-559 -185 -670 -7 -16 -29 -68 -48 -115 -61 -148 -115 -256 -242 -485 -37 -67
-138 -219 -147 -223 -5 -2 -8 -10 -8 -17 0 -7 -3 -15 -7 -17 -5 -1 -24 -25
-43 -53 -104 -151 -222 -288 -415 -480 -162 -162 -232 -225 -340 -306 -39 -29
-72 -55 -75 -58 -8 -9 -66 -49 -190 -132 -550 -364 -1203 -587 -1865 -635
-179 -13 -611 -7 -703 11 -9 1 -44 6 -77 9 -33 4 -67 9 -75 11 -8 2 -33 6 -55
9 -22 4 -51 8 -65 11 -14 2 -36 7 -50 9 -14 2 -65 14 -115 25 -483 110 -903
290 -1314 564 -74 49 -141 95 -148 103 -8 8 -17 14 -21 14 -4 0 -23 14 -42 30
-19 16 -39 33 -45 37 -123 95 -168 136 -345 313 -314 314 -503 573 -722 990
-39 73 -67 135 -153 335 -71 163 -185 577 -219 795 -3 19 -7 44 -10 55 -2 11
-7 47 -10 80 -4 33 -9 71 -11 85 -19 130 -25 514 -11 719 4 63 9 117 10 120 2
3 7 37 11 74 3 37 8 78 11 90 7 37 13 70 20 112 23 154 162 655 194 700 6 9
42 100 45 115 1 3 11 26 23 53 12 26 21 48 20 50 -3 7 163 315 230 427 82 137
274 402 378 520 62 71 332 339 413 410 304 267 747 533 1139 684 210 81 527
169 722 201 19 3 58 10 85 15 28 5 77 12 110 16 33 3 68 8 78 10 10 1 70 6
135 10 64 3 118 7 119 8 6 5 414 -2 473 -8z"/>
<path d="M4173 7217 c-4 -6 -7 -2308 -4 -2409 1 -16 15 -18 163 -15 l163 2 0
445 c-1 291 3 447 10 452 5 4 91 7 190 7 436 0 570 27 784 158 77 48 183 168
231 262 58 115 74 192 74 351 1 197 -30 309 -122 441 -92 135 -300 258 -479
283 -17 2 -35 6 -40 9 -31 19 -959 32 -970 14z m839 -261 c104 -13 189 -42
256 -88 134 -90 195 -223 188 -412 -2 -56 -6 -110 -9 -121 -26 -92 -55 -146
-109 -202 -47 -49 -79 -71 -150 -105 -107 -52 -186 -62 -468 -63 l-225 0 0
493 c0 402 2 495 13 501 16 9 432 6 504 -3z"/>
<path d="M6209 7225 c-3 0 -4 -2412 -1 -2422 3 -10 45 -13 163 -13 120 0 159
3 160 13 0 6 1 257 2 557 l2 545 95 0 c160 1 184 -9 285 -126 17 -18 59 -68
95 -109 36 -41 67 -77 70 -80 3 -3 62 -70 130 -150 69 -80 127 -147 130 -150
3 -3 30 -34 60 -69 30 -36 62 -72 70 -81 8 -9 36 -40 62 -70 26 -30 63 -73 82
-95 20 -22 55 -63 79 -92 68 -84 95 -93 280 -93 107 0 157 3 157 11 0 6 -21
36 -47 67 -27 31 -57 67 -68 80 -11 14 -24 30 -30 36 -5 6 -44 52 -85 101 -41
50 -77 92 -80 95 -3 3 -50 59 -105 125 -228 272 -421 502 -449 535 -17 20 -49
58 -71 85 -51 62 -117 125 -131 125 -6 0 -17 6 -23 14 -10 11 -8 16 8 21 24 7
82 63 171 165 36 41 105 119 154 175 49 55 114 129 145 163 31 35 61 69 67 75
5 7 44 50 85 97 40 47 81 92 89 100 8 9 38 43 67 75 163 188 207 237 227 256
10 9 16 21 13 26 -3 4 -75 7 -161 7 -139 -1 -160 -4 -197 -23 -23 -12 -50 -32
-60 -45 -10 -12 -30 -36 -46 -53 -15 -17 -55 -61 -88 -99 -104 -117 -296 -335
-349 -394 -17 -19 -63 -71 -101 -114 -39 -44 -77 -87 -85 -96 -13 -14 -117
-132 -160 -181 -42 -47 -103 -62 -236 -60 l-51 1 0 525 c0 289 -3 528 -7 532
-5 6 -94 8 -317 8z"/>
</g>
</svg>
