<?xml version="1.0" encoding="UTF-8" standalone="no"?>
<svg
   width="49"
   height="54"
   version="1.1"
   id="svg36"
   sodipodi:docname="livewire.svg"
   inkscape:version="1.2 (dc2aedaf03, 2022-05-15)"
   xmlns:inkscape="http://www.inkscape.org/namespaces/inkscape"
   xmlns:sodipodi="http://sodipodi.sourceforge.net/DTD/sodipodi-0.dtd"
   xmlns:xlink="http://www.w3.org/1999/xlink"
   xmlns="http://www.w3.org/2000/svg"
   xmlns:svg="http://www.w3.org/2000/svg">
  <sodipodi:namedview
     id="namedview38"
     pagecolor="#ffffff"
     bordercolor="#000000"
     borderopacity="0.25"
     inkscape:showpageshadow="2"
     inkscape:pageopacity="0.0"
     inkscape:pagecheckerboard="0"
     inkscape:deskcolor="#d1d1d1"
     showgrid="false"
     inkscape:zoom="2.589184"
     inkscape:cx="44.029316"
     inkscape:cy="20.083548"
     inkscape:window-width="3440"
     inkscape:window-height="1417"
     inkscape:window-x="2560"
     inkscape:window-y="1080"
     inkscape:window-maximized="1"
     inkscape:current-layer="svg36" />
  <defs
     id="defs4">
    <path
       d="M 6.214,3.968 V 13.53 A 3.107,3.107 0 0 1 0,13.53 V 1.986 C 0.58,0.922 1.242,0 2.437,0 4.38,0 5.06,2.442 6.214,3.968 Z m 11.738,0.498 v 15.122 a 3.452,3.452 0 1 1 -6.904,0 V 2.473 C 11.698,1.219 12.368,0 13.742,0 c 2.174,0 2.766,3.056 4.21,4.466 z M 29,4.188 v 10.978 a 3.107,3.107 0 1 1 -6.214,0 V 1.673 C 23.326,0.747 23.97,0 25.046,0 27.087,0 27.734,2.692 29,4.188 Z"
       id="a" />
    <path
       d="M 6.214,6.898 C 5.664,6.224 5.011,5.723 4.067,5.723 1.827,5.723 1.415,8.547 0,9.82 V -2.36 a 3.107,3.107 0 1 1 6.214,0 z M 17.952,7.116 C 17.365,6.334 16.677,5.723 15.635,5.723 c -2.493,0 -2.722,3.495 -4.587,4.461 V 4.798 a 3.452,3.452 0 0 1 6.904,0 z M 29,6.512 c -0.478,-0.471 -1.045,-0.79 -1.798,-0.79 -2.414,0 -2.704,3.28 -4.416,4.364 V -0.847 a 3.107,3.107 0 1 1 6.214,0 z"
       id="b" />
  </defs>
  <g
     fill="none"
     fill-rule="evenodd"
     id="g34"
     transform="matrix(0.99999892,0,0,1,-1.4042937,0.58763085)">
    <g
       fill-rule="nonzero"
       id="g10" />
    <g
       id="g32">
      <path
         d="M 45.76,35.247 C 44.946,36.48 44.326,38 42.667,38 39.876,38 39.725,33.696 36.932,33.696 34.139,33.696 34.29,38 31.498,38 28.706,38 28.555,33.696 25.762,33.696 22.97,33.696 23.12,38 20.33,38 17.538,38 17.387,33.696 14.595,33.696 11.8,33.696 11.95,38 9.16,38 8.283,38 7.666,37.575 7.147,36.992 5.149,33.516 4,29.442 4,25.087 4,12.337 13.85,2 26,2 c 12.15,0 22,10.336 22,23.087 0,3.646 -0.805,7.094 -2.24,10.16 z"
         fill="#fb70a9"
         id="path12" />
      <g
         transform="translate(11,29)"
         id="g18">
        <use
           fill="#4e56a6"
           xlink:href="#a"
           id="use14" />
        <use
           fill-opacity="0.299"
           fill="#000000"
           xlink:href="#b"
           id="use16" />
      </g>
      <path
         d="M 45.76,35.247 C 44.946,36.48 44.326,38 42.667,38 39.876,38 39.725,33.696 36.932,33.696 34.139,33.696 34.29,38 31.498,38 28.706,38 28.555,33.696 25.762,33.696 22.97,33.696 23.12,38 20.33,38 17.538,38 17.387,33.696 14.595,33.696 11.8,33.696 11.95,38 9.16,38 8.283,38 7.666,37.575 7.147,36.992 5.149,33.516 4,29.442 4,25.087 4,12.337 13.85,2 26,2 c 12.15,0 22,10.336 22,23.087 0,3.646 -0.805,7.094 -2.24,10.16 z"
         fill="#fb70a9"
         id="path20" />
      <path
         d="M 41,37.54 C 46.765,28.964 46.914,19.45 41.447,9 A 23.028,23.028 0 0 1 48,25.136 23.07,23.07 0 0 1 45.679,35.257 C 44.833,36.486 44.19,38 42.472,38 A 2.506,2.506 0 0 1 41,37.54 Z"
         fill="#e24ca6"
         id="path22" />
      <path
         d="m 24.82,30.846 c 7.651,0 10.872,-4.438 10.872,-10.741 C 35.692,13.802 30.825,8 24.821,8 18.816,8 13.949,13.802 13.949,20.105 c 0,6.303 3.221,10.741 10.872,10.741 z"
         fill="#ffffff"
         id="path24" />
      <g
         transform="translate(17.82,11.462)"
         id="g30">
        <ellipse
           fill="#030776"
           cx="4.0770001"
           cy="4.5"
           rx="4.0770001"
           ry="4.5"
           id="ellipse26" />
        <ellipse
           fill="#ffffff"
           cx="3.3970001"
           cy="3.4619999"
           rx="2.0380001"
           ry="2.0769999"
           id="ellipse28" />
      </g>
    </g>
  </g>
</svg>
