<?xml version="1.0" encoding="UTF-8" standalone="no"?>
<svg
   version="1.2"
   viewBox="-10 -10 157.11 157.09"
   id="svg1"
   sodipodi:docname="shopware.svg"
   width="157.11"
   height="157.09"
   inkscape:version="1.3 (0e150ed, 2023-07-21)"
   xmlns:inkscape="http://www.inkscape.org/namespaces/inkscape"
   xmlns:sodipodi="http://sodipodi.sourceforge.net/DTD/sodipodi-0.dtd"
   xmlns="http://www.w3.org/2000/svg"
   xmlns:svg="http://www.w3.org/2000/svg">
  <defs
     id="defs1" />
  <sodipodi:namedview
     id="namedview1"
     pagecolor="#ffffff"
     bordercolor="#000000"
     borderopacity="0.25"
     inkscape:showpageshadow="2"
     inkscape:pageopacity="0.0"
     inkscape:pagecheckerboard="0"
     inkscape:deskcolor="#d1d1d1"
     inkscape:zoom="2.557377"
     inkscape:cx="79.378205"
     inkscape:cy="111.05128"
     inkscape:window-width="1392"
     inkscape:window-height="1097"
     inkscape:window-x="0"
     inkscape:window-y="44"
     inkscape:window-maximized="0"
     inkscape:current-layer="svg1" />
  <title
     id="title1">shopware Vertical Logo</title>
  <g
     id="XMLID_985_"
     transform="translate(-73.17,-41.43)">
    <path
       id="XMLID_987_"
       fill="#189eff"
       d="m 188.45,171.31 c -6.83,-5.14 -16.89,-9.04 -27.54,-13.17 -12.68,-4.92 -27.05,-10.49 -37.84,-19.07 -12.22,-9.73 -18.17,-22 -18.17,-37.53 0,-13.93 5.78,-25.84 16.72,-34.45 12.26,-9.65 30.84,-14.76 53.72,-14.76 6.32,0 12.36,0.39 17.96,1.16 0.49,0.07 0.97,-0.2 1.17,-0.64 0.21,-0.45 0.1,-0.98 -0.27,-1.31 C 179.78,38.57 161.14,31.43 141.73,31.43 120.75,31.43 101.02,39.6 86.18,54.44 71.34,69.27 63.17,89 63.17,109.98 c 0,20.98 8.17,40.71 23.01,55.54 14.83,14.83 34.56,23 55.55,23 16.95,0 33.1,-5.32 46.71,-15.39 0.28,-0.21 0.46,-0.55 0.46,-0.9 0.01,-0.37 -0.16,-0.71 -0.45,-0.92 z" />
    <path
       id="XMLID_986_"
       fill="#189eff"
       d="m 219.95,102.7 c -0.03,-0.3 -0.17,-0.58 -0.4,-0.77 -16.39,-13.6 -29.65,-19.15 -45.76,-19.15 -8.6,0 -15.19,1.72 -19.59,5.12 -3.81,2.94 -5.83,7.05 -5.83,11.86 0,13.49 16.49,19.64 35.58,26.76 9.84,3.67 20.01,7.46 29.35,12.65 0.17,0.09 0.36,0.14 0.55,0.14 0.13,0 0.26,-0.02 0.38,-0.07 0.31,-0.11 0.55,-0.35 0.67,-0.65 3.57,-9.14 5.38,-18.77 5.38,-28.63 0,-2.31 -0.11,-4.76 -0.33,-7.26 z" />
  </g>
</svg>
